<svg width="41" height="26" viewBox="0 0 41 26" fill="none" xmlns="http://www.w3.org/2000/svg">
<path d="M26.0289 2.72656H14.9336V22.7596H26.0289V2.72656Z" fill="#FF5A00"/>
<path d="M15.6745 12.7423C15.6745 8.67217 17.5785 5.05979 20.5 2.72577C18.3499 1.0268 15.6376 0 12.6791 0C5.67074 0 0 5.69897 0 12.7423C0 19.7856 5.67074 25.4845 12.6791 25.4845C15.6376 25.4845 18.3499 24.4577 20.5 22.7588C17.5744 20.4577 15.6745 16.8124 15.6745 12.7423Z" fill="#EB001B"/>
<path d="M41 12.7423C41 19.7856 35.3293 25.4845 28.3209 25.4845C25.3624 25.4845 22.6501 24.4577 20.5 22.7588C23.4585 20.4206 25.3255 16.8124 25.3255 12.7423C25.3255 8.67217 23.4215 5.05979 20.5 2.72577C22.646 1.0268 25.3583 0 28.3168 0C35.3293 0 41 5.73608 41 12.7423Z" fill="#F79E1B"/>
</svg>
