<svg width="131" height="31" viewBox="0 0 131 31" fill="none" xmlns="http://www.w3.org/2000/svg">
<path fill-rule="evenodd" clip-rule="evenodd" d="M47.4927 2.92792H40.1118C39.6067 2.92792 39.1772 3.29496 39.0984 3.79334L36.1132 22.7179C36.0539 23.0915 36.3431 23.428 36.7219 23.428H40.2456C40.7507 23.428 41.1803 23.061 41.259 22.5616L42.0642 17.4574C42.1418 16.9576 42.5725 16.591 43.0765 16.591H45.413C50.2751 16.591 53.0809 14.2384 53.8141 9.57669C54.1442 7.53721 53.8281 5.93469 52.8727 4.81208C51.8238 3.58011 49.9629 2.92792 47.4927 2.92792ZM48.3442 9.83986C47.9407 12.4881 45.9171 12.4881 43.9604 12.4881H42.8466L43.628 7.5422C43.6744 7.24357 43.9334 7.02335 44.2356 7.02335H44.7461C46.0789 7.02335 47.3364 7.02334 47.9861 7.7829C48.3732 8.23634 48.4921 8.90951 48.3442 9.83986ZM69.5559 9.75496H66.0214C65.7202 9.75496 65.46 9.97519 65.4136 10.2743L65.2573 11.2626L65.01 10.9045C64.2449 9.79391 62.5388 9.42288 60.8357 9.42288C56.9296 9.42288 53.5938 12.3807 52.9441 16.5301C52.6065 18.5995 53.0864 20.5786 54.2606 21.9589C55.3379 23.2278 56.8792 23.7566 58.7126 23.7566C61.8596 23.7566 63.6051 21.7331 63.6051 21.7331L63.4473 22.7154C63.3879 23.091 63.677 23.4275 64.0536 23.4275H67.2375C67.744 23.4275 68.171 23.0605 68.2509 22.5611L70.1613 10.4651C70.2217 10.093 69.9335 9.75496 69.5559 9.75496ZM64.629 16.6334C64.2878 18.6524 62.6851 20.0078 60.6414 20.0078C59.6151 20.0078 58.7945 19.6787 58.2681 19.055C57.7457 18.4357 57.5469 17.5538 57.7132 16.572C58.0319 14.57 59.6615 13.1707 61.6743 13.1707C62.6777 13.1707 63.4937 13.5038 64.0311 14.133C64.5695 14.7688 64.7833 15.6557 64.629 16.6334ZM84.8283 9.75447H88.3803C88.8778 9.75447 89.1679 10.3123 88.8853 10.7203L77.072 27.7702C76.8807 28.0463 76.5656 28.2106 76.229 28.2106H72.6814C72.182 28.2106 71.8903 27.6483 72.1795 27.2393L75.8579 22.0477L71.9458 10.568C71.8104 10.169 72.1051 9.75447 72.5296 9.75447H76.0197C76.4732 9.75447 76.8732 10.0521 77.0041 10.4861L79.0803 17.4195L83.9793 10.2044C84.171 9.92276 84.4897 9.75447 84.8283 9.75447Z" fill="#253B80"/>
<path fill-rule="evenodd" clip-rule="evenodd" d="M123.34 22.7163L126.369 3.44565C126.416 3.14652 126.675 2.92629 126.976 2.92529H130.386C130.763 2.92529 131.052 3.26287 130.992 3.63641L128.005 22.56C127.927 23.0594 127.498 23.4264 126.992 23.4264H123.946C123.57 23.4264 123.281 23.0898 123.34 22.7163ZM100.142 2.92629H92.7594C92.2554 2.92629 91.8259 3.29334 91.747 3.79172L88.7619 22.7163C88.7024 23.0898 88.9916 23.4264 89.3687 23.4264H93.1564C93.5085 23.4264 93.8097 23.1697 93.8646 22.8202L94.7117 17.4558C94.7896 16.9559 95.2201 16.5894 95.724 16.5894H98.0594C102.922 16.5894 105.728 14.2368 106.462 9.57506C106.793 7.53559 106.474 5.93307 105.52 4.81046C104.471 3.57848 102.612 2.92629 100.142 2.92629ZM100.993 9.83824C100.591 12.4865 98.5669 12.4865 96.6091 12.4865H95.4963L96.2789 7.54058C96.3254 7.24195 96.5821 7.02172 96.8852 7.02172H97.3957C98.7277 7.02172 99.9863 7.02172 100.636 7.78128C101.023 8.23472 101.141 8.90789 100.993 9.83824ZM122.203 9.75334H118.671C118.367 9.75334 118.109 9.97357 118.064 10.2727L117.908 11.261L117.659 10.9029C116.894 9.79229 115.189 9.42125 113.486 9.42125C109.58 9.42125 106.245 12.3791 105.595 16.5285C105.259 18.5979 105.737 20.5769 106.911 21.9572C107.99 23.2262 109.53 23.755 111.363 23.755C114.51 23.755 116.255 21.7315 116.255 21.7315L116.098 22.7138C116.038 23.0893 116.327 23.4259 116.707 23.4259H119.889C120.393 23.4259 120.822 23.0589 120.901 22.5595L122.813 10.4635C122.871 10.0914 122.582 9.75334 122.203 9.75334ZM117.276 16.6318C116.937 18.6508 115.333 20.0062 113.288 20.0062C112.264 20.0062 111.442 19.6771 110.915 19.0533C110.393 18.4341 110.196 17.5522 110.361 16.5704C110.681 14.5684 112.308 13.1691 114.321 13.1691C115.325 13.1691 116.141 13.5022 116.679 14.1314C117.219 14.7671 117.433 15.654 117.276 16.6318Z" fill="#179BD7"/>
<path fill-rule="evenodd" clip-rule="evenodd" d="M24.1537 7.87609C24.1253 8.05996 24.0923 8.24786 24.0556 8.44094C22.7901 14.9653 18.4601 17.2192 12.9301 17.2192H10.1144C9.43805 17.2192 8.86803 17.7121 8.76285 18.382L6.91294 30.1638C6.84445 30.6038 7.18204 31 7.62396 31H12.618C13.2092 31 13.7116 30.5687 13.8048 29.9831L13.8538 29.7284L14.7941 23.7373L14.8545 23.4087C14.9465 22.8211 15.45 22.3895 16.0413 22.3895H16.7881C21.6265 22.3895 25.4143 20.4172 26.5214 14.7095C26.9837 12.3252 26.7444 10.3343 25.5207 8.93414C25.1504 8.51201 24.691 8.16154 24.1537 7.87609Z" fill="#298FC2"/>
<path fill-rule="evenodd" clip-rule="evenodd" d="M22.8292 7.34615C22.6358 7.28946 22.4363 7.23825 22.2317 7.19192C22.0259 7.14674 21.8153 7.10674 21.5983 7.07164C20.8391 6.94848 20.0072 6.89007 19.1162 6.89007H11.5942C11.4088 6.89007 11.2328 6.93208 11.0755 7.00805C10.7284 7.17552 10.4708 7.50527 10.4083 7.90898L8.80799 18.0854L8.76214 18.3821C8.86732 17.7122 9.43733 17.2193 10.1137 17.2193H12.9294C18.4593 17.2193 22.7894 14.9642 24.0549 8.44103C24.0928 8.24795 24.1246 8.06005 24.1529 7.87618C23.8328 7.70555 23.4861 7.55966 23.1126 7.43535C23.0204 7.40456 22.9252 7.37493 22.8292 7.34615Z" fill="#22284F"/>
<path fill-rule="evenodd" clip-rule="evenodd" d="M10.4083 7.90898C10.4708 7.50527 10.7288 7.17554 11.0758 7.00923C11.2343 6.93297 11.4091 6.89096 11.5946 6.89096H19.1166C20.0076 6.89096 20.8395 6.94966 21.5987 7.07282C21.8156 7.10764 22.0263 7.14792 22.232 7.1931C22.4367 7.23913 22.6361 7.29064 22.8296 7.34704C22.9256 7.37581 23.0207 7.40574 23.1139 7.43538C23.4873 7.55969 23.8343 7.70672 24.1545 7.87621C24.531 5.46518 24.1513 3.82358 22.8531 2.33708C21.4216 0.700376 18.8383 0 15.5325 0H5.93534C5.26015 0 4.68411 0.49291 4.57979 1.16394L0.582496 26.6045C0.503685 27.1078 0.890289 27.5618 1.39583 27.5618H7.3207L10.4083 7.90898Z" fill="#28356A"/>
</svg>
