<svg width="76" height="21" viewBox="0 0 76 21" fill="none" xmlns="http://www.w3.org/2000/svg">
<path fill-rule="evenodd" clip-rule="evenodd" d="M9.06876 0.00208894H3.19065C2.78841 0.00208894 2.4463 0.294403 2.38358 0.691314L0.00616629 15.7628C-0.0410867 16.0603 0.189254 16.3283 0.490949 16.3283H3.29721C3.69946 16.3283 4.04157 16.036 4.10429 15.6383L4.74551 11.5734C4.80736 11.1753 5.1503 10.8833 5.55171 10.8833H7.41252C11.2846 10.8833 13.5192 9.00975 14.1031 5.29716C14.366 3.67292 14.1143 2.39668 13.3534 1.50263C12.5181 0.521491 11.036 0.00208894 9.06876 0.00208894ZM9.74693 5.50675C9.42554 7.61579 7.81393 7.61579 6.25566 7.61579H5.36863L5.99091 3.6769C6.02786 3.43907 6.23414 3.26368 6.47482 3.26368H6.88136C7.94284 3.26368 8.94427 3.26368 9.46174 3.86859C9.77 4.22971 9.86466 4.76582 9.74693 5.50675ZM26.6399 5.43914H23.825C23.5851 5.43914 23.3779 5.61452 23.3409 5.85275L23.2164 6.63982L23.0195 6.35466C22.4102 5.47016 21.0515 5.17466 19.6951 5.17466C16.5843 5.17466 13.9277 7.53028 13.4102 10.8348C13.1414 12.4829 13.5236 14.059 14.4587 15.1583C15.3167 16.1689 16.5441 16.59 18.0043 16.59C20.5105 16.59 21.9007 14.9785 21.9007 14.9785L21.775 15.7608C21.7276 16.0599 21.9579 16.3279 22.2578 16.3279H24.7935C25.1968 16.3279 25.5369 16.0356 25.6006 15.6379L27.122 6.00468C27.1701 5.70839 26.9406 5.43914 26.6399 5.43914ZM22.7161 10.9171C22.4444 12.5251 21.168 13.6045 19.5404 13.6045C18.723 13.6045 18.0695 13.3424 17.6503 12.8456C17.2342 12.3525 17.0759 11.6501 17.2084 10.8682C17.4621 9.27383 18.76 8.15945 20.3629 8.15945C21.162 8.15945 21.812 8.42472 22.2399 8.92583C22.6687 9.43211 22.839 10.1384 22.7161 10.9171ZM38.8028 5.43874H41.6316C42.0277 5.43874 42.2588 5.88298 42.0337 6.2079L32.6257 19.7864C32.4733 20.0063 32.2223 20.1372 31.9543 20.1372H29.129C28.7313 20.1372 28.499 19.6894 28.7293 19.3636L31.6587 15.2291L28.5431 6.0866C28.4353 5.76883 28.67 5.43874 29.0081 5.43874H31.7876C32.1488 5.43874 32.4674 5.67577 32.5716 6.02138L34.225 11.5431L38.1266 5.79707C38.2793 5.57277 38.5331 5.43874 38.8028 5.43874Z" fill="#253B80"/>
<path fill-rule="evenodd" clip-rule="evenodd" d="M69.4734 15.7615L71.8858 0.414412C71.9228 0.176186 72.1292 0.000795413 72.3691 0H75.0849C75.3848 0 75.6151 0.268849 75.5678 0.566333L73.1889 15.637C73.1268 16.0347 72.7847 16.3271 72.3818 16.3271H69.9563C69.6564 16.3271 69.4261 16.059 69.4734 15.7615ZM50.9982 0.000796494H45.1191C44.7177 0.000796494 44.3756 0.29311 44.3128 0.690021L41.9354 15.7615C41.8881 16.059 42.1184 16.3271 42.4187 16.3271H45.4353C45.7157 16.3271 45.9555 16.1226 45.9993 15.8442L46.6739 11.5721C46.7359 11.174 47.0788 10.8821 47.4801 10.8821H49.34C53.2129 10.8821 55.4471 9.00845 56.0314 5.29586C56.2951 3.67163 56.0417 2.39539 55.2812 1.50134C54.4464 0.520199 52.9655 0.000796494 50.9982 0.000796494ZM51.6764 5.50545C51.3558 7.61449 49.7441 7.61449 48.1849 7.61449H47.2987L47.922 3.67561C47.959 3.43778 48.1635 3.26239 48.4049 3.26239H48.8114C49.8722 3.26239 50.8745 3.26239 51.3916 3.8673C51.7003 4.22842 51.7941 4.76453 51.6764 5.50545ZM68.5678 5.43784H65.7549C65.513 5.43784 65.3078 5.61323 65.2716 5.85146L65.1471 6.63852L64.9494 6.35336C64.34 5.46886 62.9821 5.17337 61.6258 5.17337C58.515 5.17337 55.8592 7.52899 55.3417 10.8335C55.0736 12.4816 55.4543 14.0577 56.3894 15.157C57.2489 16.1676 58.4748 16.5887 59.9349 16.5887C62.4412 16.5887 63.8309 14.9772 63.8309 14.9772L63.7056 15.7595C63.6583 16.0586 63.8886 16.3267 64.1905 16.3267H66.725C67.1263 16.3267 67.4684 16.0343 67.5312 15.6366L69.0534 6.00338C69.1 5.70709 68.8697 5.43784 68.5678 5.43784ZM64.6443 10.9159C64.3743 12.5238 63.0963 13.6032 61.4683 13.6032C60.6525 13.6032 59.9978 13.3411 59.5782 12.8443C59.1621 12.3512 59.0058 11.6488 59.1366 10.8669C59.3916 9.27253 60.6879 8.15816 62.2908 8.15816C63.0903 8.15816 63.7398 8.42343 64.1682 8.92454C64.5986 9.43082 64.7688 10.1371 64.6443 10.9159Z" fill="#179BD7"/>
</svg>
